<?xml version="1.0" encoding="utf-8"?>
<!-- Generator: Adobe Illustrator 16.0.4, SVG Export Plug-In . SVG Version: 6.00 Build 0)  -->
<!DOCTYPE svg PUBLIC "-//W3C//DTD SVG 1.1//EN" "http://www.w3.org/Graphics/SVG/1.1/DTD/svg11.dtd">
<svg version="1.1" id="Layer_1" xmlns="http://www.w3.org/2000/svg" xmlns:xlink="http://www.w3.org/1999/xlink" x="0px" y="0px"
	 width="1190.551px" height="841.89px" viewBox="0 0 1190.551 841.89" enable-background="new 0 0 1190.551 841.89"
	 xml:space="preserve">
<g enable-background="new    ">
	<path d="M478.624,472.937c-12.067,12.067-30.615,16.983-50.056,16.983c-16.76,0-34.414-4.47-47.375-16.313
		c-9.385-8.491-16.536-21.899-16.536-36.871h29.497c0,7.821,3.576,14.748,8.269,19.441c6.704,6.704,17.43,8.491,26.592,8.491
		c10.95,0,21.453-2.234,27.486-8.491c3.576-3.799,6.257-7.598,6.257-15.196c0-11.62-8.938-16.983-18.771-18.771
		c-10.727-2.012-24.582-2.458-35.084-4.246c-21.9-3.575-40.224-17.877-40.224-44.246c0-12.514,5.586-23.017,13.854-31.285
		c10.503-10.279,27.933-16.76,46.481-16.76c16.983,0,33.52,5.363,44.246,15.419c9.385,8.938,15.866,20.559,16.089,33.743h-29.498
		c-0.223-5.586-3.128-11.62-6.927-15.643c-5.14-5.363-15.643-8.491-24.134-8.491c-8.938,0-19.218,2.011-25.698,8.715
		c-3.352,3.575-5.363,7.598-5.363,13.408c0,10.279,6.704,15.643,16.089,17.207c10.056,1.563,24.134,2.682,34.414,4.022
		c23.688,3.352,43.576,18.771,43.576,45.81C491.809,454.613,486.446,465.116,478.624,472.937z"/>
	<path d="M515.27,354.724v-28.827h29.944v28.827H515.27z M516.164,487.015V370.813h28.38v116.202H516.164z"/>
	<path d="M635.94,428.02l39.776,58.995h-31.508l-25.922-38.883l-25.475,38.883h-30.615l40.67-59.218l-40.894-56.984h32.179
		l25.922,37.542l25.252-37.542h30.615L635.94,428.02z"/>
</g>
</svg>
